# xmcd CD database file
#
# Track frame offsets:
#	183
#	15395
#	27775
#	42740
#	57123
#	71543
#	84178
#	98163
#	112023
#	125068
#	138938
#	150588
#	163448
#	177945
#	191620
#	203293
#	217085
#	230785
#	244518
#	258110
#	273258
#	288365
#	302350
#
# Disc length: 4194 seconds
#
# Revision: 0
# Processed by: cddbd v1.4PL0 Copyright (c) Steve Scherf et al.
# Submitted via: CDex 1.50
#
DISCID=3c106017
DTITLE=Ella Fitzgerald - Ella Fitzgerald 1939 - 1940
DYEAR=1900
DGENRE=Jazz
TTITLE0=My Last Goodbye
TTITLE1=Billy (I Always Dream of Billy)
TTITLE2=Please Tell Me the Truth
TTITLE3=I'm Not Complainin'
TTITLE4=You're Gonna Lose Your Gal
TTITLE5=After I Say I'm Sorry
TTITLE6=Baby, What Else Can I Do?
TTITLE7=My Wubba Dolly (Rubber Dolly)
TTITLE8=Lindy Hopper's Delight
TTITLE9=Moon Ray
TTITLE10=Is There Somebody Else?
TTITLE11=Sugar Blues
TTITLE12=The Starlit Hour
TTITLE13=What's the Matter With Me?
TTITLE14=Baby, Won't You Please Come Home?
TTITLE15=If it Weren't for You
TTITLE16=Sing Song Swing
TTITLE17=Imagination
TTITLE18=Take It from the Top
TTITLE19=Tea Dance
TTITLE20=Jubilee Swing
TTITLE21=Untitled Instrumental
TTITLE22=Deedle-De-Dum
EXTD=
EXTT0=
EXTT1=
EXTT2=
EXTT3=
EXTT4=
EXTT5=
EXTT6=
EXTT7=
EXTT8=
EXTT9=
EXTT10=
EXTT11=
EXTT12=
EXTT13=
EXTT14=
EXTT15=
EXTT16=
EXTT17=
EXTT18=
EXTT19=
EXTT20=
EXTT21=
EXTT22=
PLAYORDER=
